<?xml version="1.0" encoding="utf-8"?>
<!-- Generator: Adobe Illustrator 25.0.1, SVG Export Plug-In . SVG Version: 6.00 Build 0)  -->
<svg version="1.1" id="Layer_1" xmlns="http://www.w3.org/2000/svg" xmlns:xlink="http://www.w3.org/1999/xlink" x="0px" y="0px"
	 viewBox="0 0 48 48" style="enable-background:new 0 0 48 48;" xml:space="preserve">
<style type="text/css">
	.st0{fill:#5B9EDD;}
	.st1{fill:#FFFFFF;}
</style>
<path class="st0" d="M48,6.7v36c0,2.9-2.4,5.3-5.3,5.3h-36C3,48,0,45,0,41.3V6.7C0,3,3,0,6.7,0h34.7C45,0,48,3,48,6.7z"/>
<path class="st1" d="M31.9,28.2c2.8-4.7,4.1-10.9,4.1-10.9h-9.3v-2.7h12V12h-12V6.7l-5.3,0V12h-12v2.7h12v2.7H10.7V20
	c0,0,17.5,0,19.3,0c-0.4,1.1-1.3,4.3-2.7,6.7c-5.2-1.6-10-2.7-13.8-2.7c-9.2,0-11.2,4.6-10.8,8.9c0.4,3.4,2.9,8.3,10.5,8.3
	c7,0,12.7-4,16.1-8.8C36,35.5,43,38.5,48,41.3v-8.1C42.7,31.5,37.2,30,31.9,28.2z M12.1,38.3c-6.5,0-7.5-3.7-7.6-5.9
	C4.4,30.6,5.7,27,13,27c2.7,0,7,1.4,11.9,3.4C22.2,34,17.8,38.3,12.1,38.3z"/>
</svg>
