<svg xmlns="http://www.w3.org/2000/svg" viewBox="0 0 1080 838"><title>Artboard 1</title><g id="e84e887e-097b-4614-b957-3fdd658f0d76" data-name="Chart"><path d="M626.24,299.36c41.68,0,83.37.24,125-.16,19.06-.18,31.2-10.45,31.24-29.67s-12-29.66-31.12-29.77q-87.72-.52-175.44,0c-20.06.12-31.66,11.16-31.81,31.28q-.31,40.85-.33,81.7a452.83,452.83,0,0,1,61.3,38.13V389c48,0,94.57.11,141.16,0,23.07-.07,37-11.83,36.63-30.38-.34-17.94-13.79-29.17-35.85-29.28-36.7-.18-73.41-.05-110.12-.05H604.19v-29.9Z"/><path d="M1081.84,35.28c-.2-23.51-11-34.68-34.19-34.69Q664,.38,280.29.57c-24.35,0-34.93,11-35.15,35.64-.23,26.13-.06,52.27-.06,78.41,0,59.22,0,59.22,59.78,67.08V309.3c2.15-.28,4.3-.53,6.45-.68,14.61-1,29.24-1.84,40.79-2.54q7.08.09,14,.4V181.17H961.49V776.54H366.15V690.43a410.56,410.56,0,0,1-61.29-2.52q0,53.57,0,107.13c0,33.4,8.74,42.28,41.69,42.28q316.47,0,632.93,0c34.21,0,42.65-8.56,42.65-43.21q0-295.93,0-591.86V179.81c7.11,0,11.42,0,15.73,0,36.18-.32,44-8.09,44-43.7C1081.94,102.5,1082.13,68.89,1081.84,35.28Zm-60.67,83.39H305.74V61.29h715.43Z"/><path d="M422.27,717.38c10.4,1.14,54,1.24,64.93-.1,16.12-2,26.05-12.09,26.46-28.45.28-11.09-3.69-19.83-11.07-25a418.28,418.28,0,0,1-96.82,23.55c-3.63.44-7.23.83-10.83,1.18C395.19,705.39,405.41,715.53,422.27,717.38Z"/><path d="M782.59,449.51c.31-18.25-10.51-28.57-28.67-30.38-6.78-.67-13.68-.2-20.52-.2H639.92q17.1,15,33.37,31.84c8.72,9,17.42,18.18,25.2,28q27.93-.14,55.87-.48C771.59,478,782.3,466.82,782.59,449.51Z"/><path d="M630.62,717.27c11,1.44,55.84,1.42,66.74-.16,16-2.32,25.57-12.84,25.55-29.24s-9.53-27.8-25.6-29.06a465,465,0,0,0-66.77-.17c-16.12,1.06-26,12-26.42,28.37C603.71,704.29,613.65,715.05,630.62,717.27Z"/><path d="M898.37,538.56c-27.92-.3-140.87-.24-169.42,0-21.76.16-35.27,11.67-35.43,29.57s13.34,30,34.92,30.06q84.72.3,169.42,0c21.32-.09,34.91-12.52,34.49-30.48C932,550.31,918.88,538.78,898.37,538.56Z"/><path d="M840.66,658.54c-17.09,1.06-27.33,12.16-27.3,29.41s10.31,27.59,27.4,29.44c10.4,1.12,21,.21,31.54.18,11.14,0,22.41,1.06,33.39-.29,16.11-2,26-12.15,26.4-28.51.41-17.28-9.51-28.84-26.49-30.13A473.86,473.86,0,0,0,840.66,658.54Z"/><path d="M352.77,322.29c119,1.64,213.78,50.14,293.29,132.12,10.5,10.83,21,21.95,29.53,34.28,3.21,4.61,3.88,15.45.69,19.38-71.31,88-159.72,148.39-274.51,162.39C278.25,685.52,173.52,643.53,83.82,560.28c-17.35-16.09-33.12-34.06-48.1-52.4-3.52-4.31-4-16.16-.66-20.3,69.3-85.66,155.37-144.14,266.34-161.15,4.69-.72,9.39-1.49,14.12-1.82C328.86,323.66,342.22,322.93,352.77,322.29ZM641,498.27C478.48,302.64,214.8,318,70.19,498.5,226.47,684.38,481.36,687.17,641,498.27Z"/><path d="M355.29,633.55c-74.87-.5-135.62-61.47-135.32-135.8.3-74.55,61.77-135.65,136-135.16,74.92.5,135.86,62.25,135,136.78C490.08,573.43,428.8,634.05,355.29,633.55Zm-.17-33.16c56.43.12,102.43-45.44,102.65-101.67a102.28,102.28,0,0,0-102-103c-56.43-.14-102.43,45.42-102.65,101.67A102.29,102.29,0,0,0,355.12,600.39Z"/><path d="M355.36,554.84A56.46,56.46,0,0,1,298.68,498c.06-31,26.09-56.93,57-56.74s56.71,26.2,56.5,57.27C412,529.21,386,555,355.36,554.84Zm.56-34.43c13-1.73,21.58-8.54,21.4-22.47-.19-13.74-8.28-21.8-22-21.72s-21.73,8.24-21.72,22C333.6,512.09,342.17,518.92,355.92,520.41Z"/></g></svg>