<svg xmlns="http://www.w3.org/2000/svg" viewBox="0 0 1080 768"><title>Artboard 6</title><g id="fa151f4f-a003-4a33-879e-65add5d31835" data-name="Layer 6"><path d="M1079.93,189.26c-28.45,2.22-57,5.15-90-14.38,36.22-18,62.91-2.56,90,2.32Z"/><path d="M709.09,2,744,569.26c-26.15,32.59-51.88,63.24-76,95.14-17.71,23.46-41,30.05-68.62,29.54-83.87-1.54-166.57,11.48-249.91,19.37,159.27,22.08,319.62,18.54,487.24,34.33,6.88-215.74,27-426.06,28.53-638.76-42.48-12.43-83.69-1.59-120.37-21.48,46.28-24.79,93.77,2,145.65-8.51-4.79,230.75-21.11,455.5-31.48,689-178.36-1.27-353.32-16.41-522.42-24.79-18.88-7.88-13-25.33-25.53-32-30.49-10-61.86,14.68-100.92-1.84-12.56-206.33-25.28-415.35-38-624.37L191,83.34c24.26,197.82,22.18,398.21,44.6,600.9,128.74,9.11,253.1-18.62,378.8-12.09,17.69-36.49-.34-71.81,10.82-104.8,24.71-21.79,58.32-5.58,93.67-22.38-10.64-171.06-21.51-345.66-32.66-524.78-174,5.67-339.85,28-520.56,23.73C214.58,21.12,620.07-7.11,709.09,2Zm-.55,571.84c-28.2,6.29-46.78-3.1-62.52,14.2,0,15.82-3.76,32.86,4,53.73Z"/><path d="M296.46,421.57v141c97.13-.08,190-18.39,285-9.55-25.27,22.2-211.6,39.34-304.41,28.45-8.88-57.69-2.43-117.85-16.11-179.33,132.15-21.79,261.87-16,386.76-30.95,22.65,22.05,19.13,42.69,15.63,65.46-26.6-2.71-17.61-31.47-34.21-38.46C518,406.87,406.3,407.1,296.46,421.57Z"/><path d="M979.6,84.46c21.4-24.83,49.34-32.69,90.31-39C1041.93,82.65,1010.55,83.42,979.6,84.46Z"/><path d="M86.34,106.85c-31.21-2.09-58-13-77.42-37.68C42.19,66.15,67.15,80.51,86.34,106.85Z"/><path d="M-.14,186.94c27.68-11.6,55.62-13.87,95-1C56,205,28.24,201.55-.14,186.94Z"/><path d="M10,301.15c22.9-20.74,46.43-36,76.88-32.86C66.53,292.85,43.31,310.39,10,301.15Z"/><path d="M484.11,478c1.68.06-3.07-9.85-9.11-11.15-40.82-8.73-78.13-49.28-123.88-26.41-15.24,7.63-39.55,20.35-41.9,48.05,25.95-.22,34.28-17.55,50.29-30.07,6.86-2.73,18.24-5.8,27.21.43q-3.42,10-6.86,20.05c-32.71,26.92-7.23,35.31,10.12,45.18,24.67-4,31.4-26.8,50.08-32.39-1.42,20.07-4,40.8,22.39,42.38,21.54-3,21.92-26.22,38.83-29.61,45.59-13.17,98.29,12.11,139.5-29.45C591.82,477.08,543.24,481.37,484.11,478Zm-72,23.44c-18.4,11.07-30.5,0-22.87-15.25C404.5,478.59,412.12,478.59,412.12,501.46Zm30.5-15.25c-2.18-6.86-5.63-9.26,4.4-12C454,483.66,450.26,483.24,442.62,486.21Z"/><rect x="297.75" y="204.09" width="152.5" height="30.5" rx="1.05" transform="matrix(1, -0.09, 0.09, 1, -18.22, 34.55)"/><rect x="289.32" y="142.75" width="298.91" height="30.5" rx="1.05" transform="matrix(1, -0.09, 0.09, 1, -12.44, 40.13)"/><rect x="289.32" y="97" width="298.91" height="30.5" rx="1.05" transform="matrix(1, -0.09, 0.09, 1, -8.32, 39.94)"/></g></svg>