<svg xmlns="http://www.w3.org/2000/svg" viewBox="0 0 1080 427"><title>Artboard 9</title><g id="a1e68d27-7eba-4d68-ba66-ecd2005c292d" data-name="Layer 8"><path d="M837.19,135.67a8.7,8.7,0,0,0,17.4,0V42.06H551.17V8.8a8.7,8.7,0,0,0-17.39,0V42.06H226.22l.56,94.71a8.7,8.7,0,0,0,8.7,8.65h.05a8.7,8.7,0,0,0,8.65-8.75l-.46-77.21H533.78V90.67a8.7,8.7,0,1,0,17.39,0V59.46h286Z"/><path d="M403,234.32c-41.63-29.89-84.38-49-125.51-56.33a123.87,123.87,0,0,0-66.42-1.76c-61.44,6.9-110.87,34.49-143.09,58.15C27.89,263.83,5.55,293,4.62,294.27l-5,6.62,5.45,6.27c1.06,1.22,26.37,30.16,67.47,59.44,54.85,39.07,111.73,59.72,164.5,59.72s109.8-20.65,165-59.7c41.35-29.27,66.91-58.21,68-59.42l5.88-6.7L470,293.76C469,292.54,443.79,263.6,403,234.32ZM84.81,350.22a424.85,424.85,0,0,1-58.44-50.16A335.8,335.8,0,0,1,80.63,250.5a303.37,303.37,0,0,1,69.83-38.39A123.63,123.63,0,0,0,162.3,391.79C131.82,380.66,105.13,364.66,84.81,350.22Zm156.3,49.49a103.36,103.36,0,0,1-26.28-203.32,239.22,239.22,0,0,1,25.26-1.34,192.38,192.38,0,0,1,32.36,2.81,103.36,103.36,0,0,1-31.34,201.85ZM389.76,350.2A349.36,349.36,0,0,1,326.41,386a123.6,123.6,0,0,0,11.52-166.76,350.82,350.82,0,0,1,52.74,31.39,424.87,424.87,0,0,1,57.62,49.74A430.86,430.86,0,0,1,389.76,350.2Z"/><path d="M240.6,255.42a42.47,42.47,0,1,0,42.46,42.47A42.52,42.52,0,0,0,240.6,255.42Zm0,64.47a22,22,0,1,1,22-22A22,22,0,0,1,240.6,319.89Z"/><path d="M1073.78,293.76c-1-1.22-26.24-30.16-67-59.44-41.63-29.89-84.38-49-125.51-56.33a123.91,123.91,0,0,0-66.43-1.76c-61.43,6.9-110.86,34.49-143.08,58.15-40.11,29.45-62.44,58.66-63.37,59.89l-5,6.62,5.45,6.27c1.05,1.22,26.37,30.16,67.47,59.44,54.84,39.07,111.72,59.72,164.49,59.72s109.81-20.65,165-59.7c41.35-29.27,66.91-58.21,68-59.42l5.88-6.7ZM688.56,350.22a425.22,425.22,0,0,1-58.43-50.16,335.8,335.8,0,0,1,54.26-49.56,303.15,303.15,0,0,1,69.83-38.39,123.61,123.61,0,0,0,11.84,179.68C735.58,380.66,708.88,364.66,688.56,350.22Zm156.31,49.49a103.36,103.36,0,0,1-26.28-203.32,239.18,239.18,0,0,1,25.25-1.34,192.5,192.5,0,0,1,32.37,2.81,103.36,103.36,0,0,1-31.34,201.85ZM993.52,350.2A349.81,349.81,0,0,1,930.16,386a123.58,123.58,0,0,0,11.53-166.76,350.82,350.82,0,0,1,52.74,31.39,424.87,424.87,0,0,1,57.62,49.74A430.86,430.86,0,0,1,993.52,350.2Z"/><path d="M844.35,255.42a42.47,42.47,0,1,0,42.47,42.47A42.51,42.51,0,0,0,844.35,255.42Zm0,64.47a22,22,0,1,1,22-22A22,22,0,0,1,844.35,319.89Z"/></g></svg>