<svg xmlns="http://www.w3.org/2000/svg" viewBox="0 0 952 1080"><title>Artboard 7</title><g id="a60ebcd8-b6bb-465e-8a20-7474e306b2d2" data-name="Layer 7"><path d="M668.47,205.42s-126.85-.35-133.57-.35v51.39c33.51,0,70.26.62,104.38.62v18H534.58v51.76H668.47v17.79H516.55V186.6l151.92-.22"/><path d="M766.48,471.76H671.72c0,13.51-.07,54.6-.07,54.6H653.58l-.09-134.65h113s21.26,11,21.26,39.14A48.85,48.85,0,0,1,766.48,471.76Zm2.15-40.91c0-17.72-14.31-19.87-14.31-19.87H672.87v41.49H756.4S768.63,448.57,768.63,430.85Z"/><path d="M412.87,391.75l134.18.21v18.59H430.8v42.29l91.71.3v18.39H430.25v52.15H412.87Z"/><polygon points="709.64 654.4 767.88 578.73 711.18 578.73 711.18 561.07 810.5 561.07 746.67 635.77 801.1 635.77 801.1 654.4 709.64 654.4"/><polygon points="420.94 575.78 385.58 575.78 385.58 556.93 474.49 556.93 474.49 575.06 439.64 575.06 439.64 651.97 420.94 651.97 420.94 575.78"/><path d="M671,711.35l-23.19,24.3-24.4-23.76,24.19-26.11Z"/><path d="M772.76,686.89l23.62,24.69-23.9,25-24.17-24.1Z"/><path d="M369.88,777.18l25.28-23.42,22.37,24.91L393.94,800Z"/><path d="M489.37,802.68l-22-27.18,23-24.32,21,28.05Z"/><path d="M607.25,777.1l-23.31,26.14-20.35-29.52,22.69-20.06C593.15,761.35,600.08,769.09,607.25,777.1Z"/><path d="M372,712.23,393.67,689l23.66,24.09c-7.25,6.66-14.55,13.35-22.58,20.71Z"/><path d="M754.36,775.79l17.49-21.42,25,21.45-25.38,21Z"/><path d="M676.66,796.72,658,778.64l19.21-22.93,21,23.6Z"/><path d="M497.82,711.17,520.18,688,543.93,712l-25.82,20.38Z"/><path d="M216.73,0V144.43h65c.67,3.21,1.06,4.21,1.06,5.2q.19,117.8.24,235.58c0,12.63-4.77,23-14.46,32.24-15.79,15.06-30.13,31.67-44.82,47.86-36.86,40.63-73.4,81.56-110.42,122.06-28.09,30.75-56.84,60.9-85,91.55C18.8,689.27,10.07,700.34,0,712.29,4.85,716.43,14.5,724,14.5,724s7.7-8,11.09-11.79Q72,660.73,118.79,609.68c27.53-30,55.6-59.43,83-89.5,36.3-39.83,72-80.19,108.31-120,28.07-30.78,56.79-61,85-91.66,8.87-9.65,17-20,26.46-31.16L408,264.85,302.75,378.77V145.39H866.39V834.27H302.61V491H282.93V854.12H572.69v94.69a65.53,65.53,0,1,0,20.69,0v-96H883.13V143.68h69.08V0ZM625.5,1013.5A42.5,42.5,0,1,1,583,971,42.5,42.5,0,0,1,625.5,1013.5ZM934.09,124.64H235.19V16.55h698.9Z"/><path d="M595.33,557A50.7,50.7,0,1,0,646,607.69,50.69,50.69,0,0,0,595.33,557Zm0,75.29a24.6,24.6,0,1,1,24.6-24.6A24.6,24.6,0,0,1,595.33,632.29Z"/></g></svg>