<svg id="Capa_1" enable-background="new 0 0 512 512" height="512" viewBox="0 0 512 512" width="512" xmlns="http://www.w3.org/2000/svg">
    <g>
        <g>
            <g>
                <g>
                    <g>
                        <g>
                            <g>
                                <path d="m324.765 512h-234.882c-22.758 0-41.207-18.449-41.207-41.207v-429.586c0-22.758 18.449-41.207 41.207-41.207h234.881c22.758 0 41.207 18.449 41.207 41.207v429.586c.001 22.758-18.448 41.207-41.206 41.207z" fill="#3d6d93" />
                                <path d="m324.765 0h-30.905c22.758 0 41.207 18.449 41.207 41.207v429.586c0 22.758-18.449 41.207-41.207 41.207h30.905c22.758 0 41.207-18.449 41.207-41.207v-429.586c0-22.758-18.449-41.207-41.207-41.207z" fill="#335e80" />
                                <path d="m282.994 39.147c0 7.692-6.235 13.927-13.927 13.927h-123.486c-7.692 0-13.927-6.235-13.927-13.927 0-4.552-3.69-8.241-8.241-8.241h-28.379c-8.534 0-15.453 6.918-15.453 15.453v419.284c0 8.534 6.918 15.453 15.453 15.453h224.579c8.534 0 15.453-6.918 15.453-15.453v-419.285c0-8.534-6.918-15.453-15.453-15.453h-28.379c-4.55 0-8.24 3.69-8.24 8.242z" fill="#f9f7f8" />
                            </g>
                            <circle cx="207.324" cy="26.537" fill="#335e80" r="7.726" />
                        </g>
                    </g>
                </g>
            </g>
        </g>
        <g>
            <g>
                <g>
                    <path d="m125.94 153.637c-4.267 0-7.726-3.459-7.726-7.726v-25.894c0-8.236 6.701-14.938 14.938-14.938h25.894c4.267 0 7.726 3.459 7.726 7.726 0 4.268-3.459 7.726-7.726 7.726h-25.379v25.379c-.001 4.268-3.46 7.727-7.727 7.727z" fill="#8fd8fa" />
                </g>
                <g>
                    <path d="m288.708 153.637c-4.267 0-7.726-3.459-7.726-7.726v-25.379h-25.379c-4.267 0-7.726-3.459-7.726-7.726 0-4.268 3.459-7.726 7.726-7.726h25.894c8.236 0 14.938 6.701 14.938 14.938v25.894c0 4.266-3.46 7.725-7.727 7.725z" fill="#8fd8fa" />
                </g>
            </g>
            <g>
                <g>
                    <path d="m159.045 283.3h-25.894c-8.236 0-14.938-6.701-14.938-14.938v-25.894c0-4.268 3.459-7.726 7.726-7.726s7.726 3.459 7.726 7.726v25.379h25.379c4.267 0 7.726 3.459 7.726 7.726.001 4.268-3.458 7.727-7.725 7.727z" fill="#8fd8fa" />
                </g>
                <g>
                    <path d="m281.497 283.3h-25.894c-4.267 0-7.726-3.459-7.726-7.726 0-4.268 3.459-7.726 7.726-7.726h25.379v-25.379c0-4.268 3.459-7.726 7.726-7.726s7.726 3.459 7.726 7.726v25.894c.001 8.236-6.701 14.937-14.937 14.937z" fill="#8fd8fa" />
                </g>
            </g>
            <path d="m160.966 176.816h24.864c2.276 0 4.121-1.845 4.121-4.121v-24.864c0-2.276-1.845-4.121-4.121-4.121h-24.864c-2.276 0-4.121 1.845-4.121 4.121v24.864c0 2.276 1.845 4.121 4.121 4.121z" fill="#8fd8fa" />
            <path d="m228.818 176.816h24.864c2.276 0 4.121-1.845 4.121-4.121v-24.864c0-2.276-1.845-4.121-4.121-4.121h-24.864c-2.276 0-4.121 1.845-4.121 4.121v24.864c0 2.276 1.845 4.121 4.121 4.121z" fill="#8fd8fa" />
            <path d="m253.682 143.71h-15.453c2.276 0 4.121 1.845 4.121 4.121v24.864c0 2.276-1.845 4.121-4.121 4.121h15.453c2.276 0 4.121-1.845 4.121-4.121v-24.864c0-2.276-1.845-4.121-4.121-4.121z" fill="#6bcdfe" />
            <path d="m185.83 143.71h-15.453c2.276 0 4.121 1.845 4.121 4.121v24.864c0 2.276-1.845 4.121-4.121 4.121h15.453c2.276 0 4.121-1.845 4.121-4.121v-24.864c-.001-2.276-1.845-4.121-4.121-4.121z" fill="#6bcdfe" />
            <path d="m160.966 244.668h24.864c2.276 0 4.121-1.845 4.121-4.121v-24.864c0-2.276-1.845-4.121-4.121-4.121h-24.864c-2.276 0-4.121 1.845-4.121 4.121v24.864c0 2.276 1.845 4.121 4.121 4.121z" fill="#8fd8fa" />
            <path d="m216.971 203.836h15.453v15.453h-15.453z" fill="#8fd8fa" />
            <g>
                <path d="m257.803 230.133c-4.267 0-7.726-3.459-7.726-7.726v-10.844c0-4.268 3.459-7.726 7.726-7.726s7.726 3.459 7.726 7.726v10.844c0 4.267-3.459 7.726-7.726 7.726z" fill="#8fd8fa" />
            </g>
            <g>
                <path d="m257.803 252.394h-33.105c-4.267 0-7.726-3.459-7.726-7.726 0-4.268 3.459-7.726 7.726-7.726h33.105c4.267 0 7.726 3.459 7.726 7.726 0 4.268-3.459 7.726-7.726 7.726z" fill="#8fd8fa" />
            </g>
            <path d="m185.83 211.563h-15.453c2.276 0 4.121 1.845 4.121 4.121v24.864c0 2.276-1.845 4.121-4.121 4.121h15.453c2.276 0 4.121-1.845 4.121-4.121v-24.864c-.001-2.277-1.845-4.121-4.121-4.121z" fill="#6bcdfe" />
        </g>
    </g>
</svg>